<?xml version="1.0" encoding="UTF-8"?>
<svg id="Layer_2" data-name="Layer 2" xmlns="http://www.w3.org/2000/svg" viewBox="0 0 465 100">
  <defs>
    <style>
      .cls-1 {
        fill: #fff;
      }
    </style>
  </defs>
  <path class="cls-1" d="M.2013,93.6681L32.5874,3.9991c.4789-1.3259,1.7396-2.2097,3.1521-2.2097h9.3054c1.4125,0,2.6732.8839,3.1521,2.2098l32.3851,89.669c.7869,2.1788-.831,4.4767-3.1521,4.4767h-8.0472c-1.4309,0-2.7039-.9067-3.1688-2.2571L40.8235,22.1339l-.9296-4.1742-.9956,4.241-13.9475,40.291-1.4614,2.717,1.6603-.2643h14.6998c2.2581,0,4.1508.5188,5.6782,1.5564,1.5274,1.0387,2.778,2.3859,3.753,4.0426l2.9648,5.0694h-31.611l-6.9931,20.2766c-.4654,1.3494-1.7379,2.2553-3.1682,2.2553H3.3534c-2.3211,0-3.939-2.2979-3.1521-4.4767h0Z"/>
  <path class="cls-1" d="M133.7341,100c-7.6607,0-14.2123-1.5348-19.6581-4.6056-5.4458-3.0697-9.6193-7.4326-12.5195-13.0877s-4.3497-12.3262-4.3497-20.0134V5.1326c0-1.8464,1.5001-3.3432,3.3505-3.3432h7.4453c1.8504,0,3.3505,1.4968,3.3505,3.3432v59.2154c0,7.6429,2.0581,13.7176,6.1765,18.224,4.1173,4.5064,9.5188,6.7585,16.2045,6.7585,6.6413,0,12.0212-2.2521,16.1385-6.7585,4.1173-4.5064,6.1765-10.581,6.1765-18.224V5.1326c0-1.8464,1.5001-3.3432,3.3505-3.3432h7.4453c1.8504,0,3.3505,1.4968,3.3505,3.3432v57.1607c0,7.5545-1.5176,14.1598-4.5497,19.8149-3.0331,5.6551-7.2953,10.0504-12.7844,13.1869-5.4912,3.1366-11.8666,4.7048-19.1274,4.7048h.0002Z"/>
  <path class="cls-1" d="M237.7363,99.7357c-9.6075,0-18.0972-2.0547-25.4693-6.1631-7.3721-4.1095-13.1389-9.8961-17.3006-17.3633-4.1627-7.465-6.2425-16.1693-6.2425-26.1096,0-7.2892,1.2053-13.9829,3.619-20.0792,2.4127-6.0973,5.8112-11.3868,10.1944-15.8716,4.3832-4.4837,9.5523-7.9525,15.5073-10.4042,5.9549-2.4527,12.5195-3.678,19.6916-3.678,3.7195,0,7.5385.3646,11.457,1.0937,2.8452.5286,5.7308,1.2734,8.6577,2.2338,1.8237.5984,2.7623,2.6197,2.06,4.4025l-1.3863,3.5189c-.6337,1.6086-2.3932,2.4577-4.059,1.9834-2.7364-.7791-5.2467-1.3572-7.5306-1.7344-3.0785-.508-6.143-.7626-9.1989-.7626-4.781,0-9.2205.8952-13.3151,2.6836-4.0957,1.7894-7.6607,4.3737-10.6927,7.754-3.0331,3.3792-5.4026,7.4887-7.1061,12.3262-1.7057,4.8375-2.5575,10.3491-2.5575,16.5338,0,5.6109.8518,10.7914,2.5575,15.5404,1.7036,4.7491,4.073,8.8693,7.1061,12.3586,3.0321,3.4903,6.597,6.2073,10.6927,8.151,4.0946,1.9447,8.5341,2.9165,13.3151,2.9165,3.0558,0,6.1981-.3861,9.4313-1.1595,2.263-.5417,4.6029-1.3273,7.019-2.3566,1.7393-.741,3.751.0547,4.4576,1.805l1.3709,3.3956c.666,1.6497-.0766,3.5464-1.6962,4.2888-3.0874,1.4152-6.129,2.4946-9.1256,3.2378-3.9184.9707-7.7374,1.4583-11.457,1.4583l.0002.0002Z"/>
  <path class="cls-1" d="M270.8974,93.6681L303.2835,3.9991c.4789-1.3259,1.7396-2.2097,3.1521-2.2097h9.3054c1.4125,0,2.6732.8839,3.1521,2.2098l32.3851,89.669c.7869,2.1788-.831,4.4767-3.1521,4.4767h-8.0472c-1.4309,0-2.7039-.9067-3.1688-2.2571l-25.3905-73.7538-.9296-4.1742-.9956,4.241-13.9475,40.291-1.4614,2.717,1.6603-.2643h14.6998c2.2581,0,4.1508.5188,5.6782,1.5564,1.5274,1.0387,2.778,2.3859,3.753,4.0426l2.9648,5.0694h-31.611l-6.9931,20.2766c-.4654,1.3494-1.7379,2.2553-3.1682,2.2553h-7.12c-2.3211,0-3.939-2.2979-3.1521-4.4767h.0002Z"/>
  <path class="cls-1" d="M368.9654,94.8017V5.5695c0-1.6205,1.1717-3.0112,2.771-3.2947,2.6435-.4687,5.0956-.8517,7.3575-1.1476,3.0321-.398,5.9766-.6849,8.8324-.8618C390.7822.0896,393.8045,0,396.9922,0c7.1721,0,13.4481,1.2922,18.8279,3.8776,5.3799,2.5843,9.5631,6.0962,12.552,10.5368,2.9888,4.4395,4.4827,9.4658,4.4827,15.0756,0,5.6993-1.4722,10.6145-4.4157,14.7455-2.9456,4.131-6.7862,7.3884-11.5229,9.7742-2.5856,1.3023-4.8216,2.6349-8.1379,3.4828-2.8688.7334-5.5966.796-10.9343.8909-3.0996.0551-5.6717.0051-7.4629-.0523.4172-1.1405,1.3696-3.4755,3.0137-5.5143.3135-.3887.9145-1.1265,1.8636-1.9397,0,0,.9831-.83,2.0214-1.4395,1.716-1.0074,2.5435-.7183,5.114-1.3925,3.1861-.8355,5.348-2.081,6.1214-2.5509.9847-.5984,1.6922-1.1381,2.0008-1.3811,1.7998-1.4177,3.3472-3.1553,4.6405-5.2123,1.7479-2.7839,2.6224-5.9204,2.6224-9.4108,0-3.5335-.9188-6.7143-2.7553-9.5424-1.8387-2.827-4.3292-5.0586-7.4715-6.6938-3.1445-1.6341-6.664-2.4517-10.5598-2.4517-2.3911,0-4.6719.0669-6.8413.1985-2.1695.1327-4.4492.3322-6.8402.5965v83.2045c0,1.8464-1.4998,3.3432-3.3504,3.3432h-7.6445c-1.8506,0-3.3504-1.4968-3.3504-3.3431h0Z"/>
  <path class="cls-1" d="M451.1196,94.8016V5.1326c0-1.8464,1.5001-3.3432,3.3505-3.3432h7.1794c1.8504,0,3.3505,1.4968,3.3505,3.3432v89.669c0,1.8464-1.5001,3.3432-3.3505,3.3432h-7.1794c-1.8504,0-3.3505-1.4968-3.3505-3.3432Z"/>
</svg>