<?xml version="1.0" encoding="UTF-8"?>
<svg id="Layer_1" xmlns="http://www.w3.org/2000/svg" version="1.1" viewBox="0 0 500 500">
  <!-- Generator: Adobe Illustrator 29.6.1, SVG Export Plug-In . SVG Version: 2.1.1 Build 9)  -->
  <defs>
    <style>
      .st0 {
        fill: #fff;
      }
    </style>
  </defs>
  <g id="Layer_11" data-name="Layer_1">
    <g>
      <g>
        <g>
          <g>
            <g>
              <path class="st0" d="M334.2,200c0-1.1,0-2.2,0-3.3-6.5,7-29.3,14-42.7,6.5-.4,2.3-.3,6,0,8.3,19.3,6,30.8,0,42.3-7.3.1-1.3.2-2.7.3-4.2h0Z"/>
              <path class="st0" d="M322.5,195.1c2.4-.6,8-2.7,11.7-6.1,0-2.6-.5-5.8-.9-8.3-6.6,7.9-14.1,13.2-23.4,16,3.3.1,7.7-.1,12.6-1.6h0Z"/>
              <path class="st0" d="M341.4,264.5c-3.6-17.5-11-16.5-9.9-37.5-4.4,1.8-12.2,4.2-22.1,3.4-5.2-.5-9.5-1.7-12.8-3,12.8,34.8,35,39.9,30.9,76.9-1.2,1.3-3.1,3.8-4.2,7.5-1,3.4-1,6.3-.8,8h17.7c1.2-8.6,2-18.4,2.2-29.1.1-9.5-.3-18.3-1-26.2h0Z"/>
              <path class="st0" d="M180.7,241.9c1.4,0,3.6-.2,5.9-.6,2.1-.3,3.8-.8,5.1-1.1,0-1.3,0-2.5,0-3.8-3,.4-8.1.8-14-.7-6-1.5-10.4-4.2-12.9-6,.8,3,1.9,6.2,2.9,9.1,2.4,1.2,7,3.1,12.9,3h0Z"/>
              <path class="st0" d="M198.5,228.9c.2,1.8.4,3.4.6,5,5.9,2.8,19.2,2.4,23.8.2,1.1-3.8,2-8.8,2.4-12.9-4.3,4.8-20,9.6-26.8,7.7h0Z"/>
              <path class="st0" d="M199.6,243.2c.7,11.6,1.4,20.9,2.1,32.5,6.8-3.1,14-9,18.5-14.1.6-6.6,1.1-10.8,1.7-17.5-7.4,1.1-14.8.9-22.2-.9h0Z"/>
              <path class="st0" d="M208.9,283.3c-2.3,1.6-4.4,3-6.5,4.1.3,5.7.7,11.5,1,17.2-2.7,2.5-6.1,11.3-5.6,15.3,5.7,0,11.4,0,17,0,.5-5,1-9.9,1.5-14.9h0c.9-10,1.7-20.1,2.6-30.1-3,2.9-6.3,5.7-10,8.3h0Z"/>
              <path class="st0" d="M306,280.9c-.4-7.4-.9-11.6-2.1-15.4-2.1-7.2-5.9-12.7-11.6-23.9-10.3-20.4-10.6-41.8-6-58.4,11.8,7.9,34.9,6.3,44.4-11-11.1-22.5-33.2-32.8-56.8-29.8-7.3.8-14.6,2.4-21.9,2.8-13.5,0-28.1-2.2-46.3-11.2-2.5,4.3-9.5,11-13.8,13.3-3.5-3-10.1-9.6-13.2-20-3.1-8.1-1.4-32.8,4.3-38.5-.5-.7-1.8-1.9-2.9-2.3-.7.9-1.6,2.3-2.8,4,0,0-8.4,12.7-13.4,28.5-9.2,28.9-7,58.1-2.5,88.5,2.1,14.3,18.5,22.9,30.4,21.4.7-8.6,1.5-17.1,2.2-25.7,1.3,5.9,2.6,11.8,3.8,17.7,14.1.7,32.4-11.2,37.5-20.3-.4,9.8-1.7,21.5-3.3,31.1,9.8,4.2,36.2,4.4,49.7-2.2-2.3,4.5-13.2,11.2-17.7,11.3,2.2,6.3,9.7,14.7,14.7,19.7,10.1,10.6,15.3,31,12.3,44.7-1.1,1.2-3,3.5-4.1,6.9-1.1,3.3-1,6.1-.9,7.7h17.7c2.6-16.5,2.6-29.7,2.1-38.9h0Z"/>
              <path class="st0" d="M171.2,249.1c.9,7.5,1.8,10.2,2.7,17.7,4.8,3.9,12.5,7.9,18,9.3.2-10.8.4-16.9.5-27.8-7.3,2.4-14.2,3.1-21.2.8h0Z"/>
              <path class="st0" d="M175.2,278.6c1,8.5,2,17,3,25.6h0c-2.9,1.9-6.8,11.9-5.8,15.7h17.3c.5-5.2,1.1-10.5,1.6-15.7h0c0-5.5.2-11,.3-16.5-5-1.9-11.6-5.4-16.4-9h0Z"/>
            </g>
            <path class="st0" d="M258.1,124.2c-.5-4-2.5-7.2-5.1-10.1-5.7-6.1-11.1-12.4-15.5-19.5-2.4-4.2-7.9-11.3-12.2-14.7,14.3-4.1,18.1-16.5,16.8-29.9-10.9,5.2-22.1,10-27.9,21.1,1-3.4-2.1-18.8-4.5-19.1-.6.1,0,3.1-.6,7.8-.4,4.1-1.5,7.3-2.3,9.4,0-3.4-4.5-17.1-7.8-18-.6.2,0,1.9.3,7.8,1.1,5.3-2,20.4,4.3,25.5,2.5,2.3,4.5,2.1,8.8,3.7,15.4,6.5,19.5,15.8,31.1,28.6-2.4.4-7.6,4.4-8.8,7-13.4,1.5-35.3-7-41.1-24-6.9,18.8,12.8,30.1,28.8,30.3,8,.9,12.6,0,18.5,3.3,8,5.5,17.9,1.3,17.2-9.4h0Z"/>
          </g>
          <path class="st0" d="M188.1,84.1c1.9,1.5,3.5,2.8,4.5,3.7,2.9-23.3.7-30.8-19.9-42.9-3,7.9-5.1,17.4.2,26.9,2.4,3.6,4.3,3.6,15.1,12.2h0Z"/>
        </g>
        <path class="st0" d="M327.8,222.1c1.5-.6,2.8-1.3,4-2,.6-3.1,1.1-6.3,1.7-9.4-2.7,2.4-6.4,5.3-11.2,7.8-4.6,2.5-8.9,4-12.3,4.9,4.1.8,10.7,1.4,17.8-1.4h0Z"/>
      </g>
      <path class="st0" d="M219.3,99.8c0,5.2-8.1,5.2-8,0,0-5.2,8.1-5.2,8,0Z"/>
    </g>
  </g>
  <g id="Layer_2">
    <g>
      <path class="st0" d="M17.7,448.7l32.4-89.7c.5-1.3,1.7-2.2,3.2-2.2h9.3c1.4,0,2.7.9,3.2,2.2l32.4,89.7c.8,2.2-.8,4.5-3.2,4.5h-8c-1.4,0-2.7-.9-3.2-2.3l-25.4-73.8-.9-4.2-1,4.2-13.9,40.3-1.5,2.7,1.7-.3h14.7c2.3,0,4.2.5,5.7,1.6,1.5,1,2.8,2.4,3.8,4l3,5.1h-31.6l-7,20.3c-.5,1.3-1.7,2.3-3.2,2.3h-7.1c-2.3,0-3.9-2.3-3.2-4.5h0Z"/>
      <path class="st0" d="M151.2,455c-7.7,0-14.2-1.5-19.7-4.6-5.4-3.1-9.6-7.4-12.5-13.1-2.9-5.7-4.3-12.3-4.3-20v-57.2c0-1.8,1.5-3.3,3.4-3.3h7.4c1.9,0,3.4,1.5,3.4,3.3v59.2c0,7.6,2.1,13.7,6.2,18.2,4.1,4.5,9.5,6.8,16.2,6.8s12-2.3,16.1-6.8c4.1-4.5,6.2-10.6,6.2-18.2v-59.2c0-1.8,1.5-3.3,3.4-3.3h7.4c1.9,0,3.4,1.5,3.4,3.3v57.2c0,7.6-1.5,14.2-4.5,19.8-3,5.7-7.3,10.1-12.8,13.2-5.5,3.1-11.9,4.7-19.1,4.7h0Z"/>
      <path class="st0" d="M255.2,454.7c-9.6,0-18.1-2.1-25.5-6.2-7.4-4.1-13.1-9.9-17.3-17.4-4.2-7.5-6.2-16.2-6.2-26.1s1.2-14,3.6-20.1c2.4-6.1,5.8-11.4,10.2-15.9,4.4-4.5,9.6-8,15.5-10.4,6-2.5,12.5-3.7,19.7-3.7s7.5.4,11.5,1.1c2.8.5,5.7,1.3,8.7,2.2,1.8.6,2.8,2.6,2.1,4.4l-1.4,3.5c-.6,1.6-2.4,2.5-4.1,2-2.7-.8-5.2-1.4-7.5-1.7-3.1-.5-6.1-.8-9.2-.8-4.8,0-9.2.9-13.3,2.7-4.1,1.8-7.7,4.4-10.7,7.8-3,3.4-5.4,7.5-7.1,12.3-1.7,4.8-2.6,10.3-2.6,16.5s.9,10.8,2.6,15.5c1.7,4.7,4.1,8.9,7.1,12.4,3,3.5,6.6,6.2,10.7,8.2,4.1,1.9,8.5,2.9,13.3,2.9s6.2-.4,9.4-1.2c2.3-.5,4.6-1.3,7-2.4,1.7-.7,3.8,0,4.5,1.8l1.4,3.4c.7,1.6,0,3.5-1.7,4.3-3.1,1.4-6.1,2.5-9.1,3.2-3.9,1-7.7,1.5-11.5,1.5h0Z"/>
      <path class="st0" d="M288.4,448.7l32.4-89.7c.5-1.3,1.7-2.2,3.2-2.2h9.3c1.4,0,2.7.9,3.2,2.2l32.4,89.7c.8,2.2-.8,4.5-3.2,4.5h-8c-1.4,0-2.7-.9-3.2-2.3l-25.4-73.8-.9-4.2-1,4.2-13.9,40.3-1.5,2.7,1.7-.3h14.7c2.3,0,4.2.5,5.7,1.6,1.5,1,2.8,2.4,3.8,4l3,5.1h-31.6l-7,20.3c-.5,1.3-1.7,2.3-3.2,2.3h-7.1c-2.3,0-3.9-2.3-3.2-4.5h0Z"/>
      <path class="st0" d="M386.5,449.8v-89.2c0-1.6,1.2-3,2.8-3.3,2.6-.5,5.1-.9,7.4-1.1,3-.4,6-.7,8.8-.9,2.9-.2,5.9-.3,9.1-.3,7.2,0,13.4,1.3,18.8,3.9,5.4,2.6,9.6,6.1,12.6,10.5,3,4.4,4.5,9.5,4.5,15.1s-1.5,10.6-4.4,14.7c-2.9,4.1-6.8,7.4-11.5,9.8-2.6,1.3-4.8,2.6-8.1,3.5-2.9.7-5.6.8-10.9.9-3.1,0-5.7,0-7.5,0,.4-1.1,1.4-3.5,3-5.5.3-.4.9-1.1,1.9-1.9,0,0,1-.8,2-1.4,1.7-1,2.5-.7,5.1-1.4,3.2-.8,5.3-2.1,6.1-2.6,1-.6,1.7-1.1,2-1.4,1.8-1.4,3.3-3.2,4.6-5.2,1.7-2.8,2.6-5.9,2.6-9.4s-.9-6.7-2.8-9.5c-1.8-2.8-4.3-5.1-7.5-6.7-3.1-1.6-6.7-2.5-10.6-2.5s-4.7,0-6.8.2c-2.2.1-4.4.3-6.8.6v83.2c0,1.8-1.5,3.3-3.4,3.3h-7.6c-1.9,0-3.4-1.5-3.4-3.3h0Z"/>
      <path class="st0" d="M468.6,449.8v-89.7c0-1.8,1.5-3.3,3.4-3.3h7.2c1.9,0,3.4,1.5,3.4,3.3v89.7c0,1.8-1.5,3.3-3.4,3.3h-7.2c-1.9,0-3.4-1.5-3.4-3.3Z"/>
    </g>
  </g>
</svg>