<?xml version="1.0" encoding="UTF-8"?>
<svg id="Layer_2" data-name="Layer 2" xmlns="http://www.w3.org/2000/svg" viewBox="0 0 185 275">
  <defs>
    <style>
      .cls-1 {
        fill: #fff;
      }
    </style>
  </defs>
  <g>
    <g>
      <g>
        <g>
          <path class="cls-1" d="M176.7224,155.033c.0307-1.141.0243-2.2318-.0093-3.2669-6.5343,6.9591-29.285,14.022-42.6568,6.4678-.362,2.3183-.3419,5.9627.0655,8.3295,19.2508,6.0184,30.7643.0104,42.3224-7.3195.1374-1.3106.2371-2.7175.2782-4.2108h0Z"/>
          <path class="cls-1" d="M165.0414,150.1464c2.3807-.6017,8.0199-2.7497,11.7049-6.1325-.0941-2.5692-.4524-5.7643-.9298-8.2956-6.5702,7.8847-14.1384,13.1945-23.395,16.0205,3.2537.1198,7.6927-.1111,12.62-1.5925h0Z"/>
          <path class="cls-1" d="M183.9527,219.4974c-3.6306-17.5065-10.95-16.4663-9.9126-37.4824-4.3745,1.767-12.2439,4.2288-22.0669,3.3713-5.1919-.4531-9.5176-1.7103-12.7588-2.9548,12.7766,34.806,35.0471,39.873,30.876,76.856-1.1743,1.3079-3.1101,3.8077-4.2463,7.4893-1.0474,3.3931-.9602,6.3149-.7808,8.0217h17.7068c1.1814-8.6492,2.0388-18.4097,2.2019-29.1079.1448-9.5194-.283-18.2957-1.0193-26.1931h0Z"/>
          <path class="cls-1" d="M23.2464,196.8701c1.425-.0092,3.6453-.2356,5.9238-.6174,2.0879-.3499,3.8271-.7836,5.1082-1.1455.0317-1.2574.0637-2.515.0955-3.7725-3.0137.4423-8.0598.7992-14.0278-.6602-6.0405-1.4771-10.3911-4.1705-12.8643-5.9706.8315,2.9844,1.8525,6.2296,2.8684,9.1343,2.4214,1.2111,6.9729,3.0697,12.8962,3.0319Z"/>
          <path class="cls-1" d="M41.0162,183.8551c.2313,1.8139.428,3.3574.6314,4.9576,5.8553,2.7806,19.1552,2.4263,23.8324.209,1.0665-3.7843,2.0084-8.8348,2.3725-12.8909-4.3336,4.7708-19.9735,9.5653-26.8364,7.7243h0Z"/>
          <path class="cls-1" d="M42.0757,198.153c.693,11.623,1.386,20.8596,2.079,32.4828,6.806-3.0656,13.9802-9.0182,18.4535-14.1372.5686-6.6147,1.1374-10.8429,1.7052-17.4575-7.4184,1.094-14.7872.9375-22.2377-.8881h0Z"/>
          <path class="cls-1" d="M51.4052,238.3118c-2.2569,1.5903-4.4457,2.9576-6.5462,4.145.3426,5.74.685,11.4801,1.0268,17.2202-2.6591,2.4531-6.0526,11.2925-5.6021,15.2961,5.6824.0088,11.3643.0178,17.0468.0269.5105-4.9602,1.0202-9.9204,1.5305-14.8807h-.0005c.8621-10.0338,1.7245-20.0676,2.5861-30.1014-3.0021,2.8571-6.3327,5.6816-10.0413,8.2939h0Z"/>
          <path class="cls-1" d="M148.4969,235.8746c-.3875-7.3547-.9397-11.5815-2.0854-15.4309-2.1357-7.1754-5.9321-12.6914-11.6462-23.8857-10.3367-20.4125-10.6218-41.8193-6.0002-58.3789,11.8062,7.8597,34.9124,6.3455,44.4316-11.0139-11.1184-22.5138-33.1956-32.7877-56.759-29.7723-7.3149.7549-14.5579,2.3752-21.8818,2.8492-13.4626.0219-28.095-2.2181-46.3113-11.1884-2.4917,4.3403-9.4751,11.0483-13.8354,13.3373-3.5208-3.0137-10.1401-9.5731-13.1772-19.9874-3.1455-8.1499-1.3508-32.7567,4.2651-38.5159-.5432-.7472-1.8157-1.8546-2.8882-2.328-.6509.8912-1.6323,2.264-2.7668,3.9747,0,0-8.3928,12.6552-13.4487,28.4989-9.2219,28.8979-6.9888,58.0535-2.5085,88.4825,2.1079,14.3158,18.4607,22.8966,30.3586,21.361.728-8.5553,1.4561-17.1105,2.1841-25.6658,1.2815,5.906,2.5627,11.8119,3.8442,17.7179,14.0881.7209,32.3862-11.2213,37.522-20.3132-.4314,9.8491-1.6553,21.4835-3.2539,31.0969,9.845,4.2324,36.2065,4.4156,49.7283-2.2188-2.2556,4.4982-13.198,11.2347-17.7092,11.299,2.2478,6.2958,9.7158,14.7491,14.7332,19.657,10.0793,10.6476,15.3386,31.0383,12.3438,44.6855-1.1189,1.2037-2.9731,3.5123-4.1057,6.9421-1.0813,3.2744-1.0208,6.1055-.8667,7.7209h17.7227c2.5547-16.4615,2.5957-29.7201,2.1111-38.9238h-.0005Z"/>
          <path class="cls-1" d="M13.6702,204.0575c.887,7.4894,1.7745,10.2058,2.6615,17.6952,4.8238,3.941,12.4933,7.9074,18.035,9.2931.1759-10.8423.3519-16.9116.5283-27.7539-7.259,2.4152-14.2374,3.1492-21.2248.7656Z"/>
          <path class="cls-1" d="M17.7499,233.5537c1.01,8.5244,2.0202,17.0486,3.0295,25.573h-.0005c-2.8945,1.8612-6.8222,11.8685-5.7769,15.6717h17.3232c.5278-5.2493,1.0554-10.4984,1.5832-15.7476h.0007c.0896-5.5029.1786-11.0057.2682-16.5087-4.9643-1.8934-11.5681-5.4371-16.4275-8.9885h0Z"/>
        </g>
        <path class="cls-1" d="M100.6131,79.2488c-.4713-4.0417-2.4873-7.2121-5.124-10.0622-5.6587-6.1174-11.1011-12.3961-15.4911-19.5238-2.3711-4.1582-7.8789-11.2775-12.2437-14.655,14.3498-4.0746,18.1453-16.5121,16.8284-29.9119-10.9425,5.2123-22.1125,9.9728-27.9487,21.0822,1.021-3.3733-2.0795-18.7731-4.5475-19.1005-.6416.1432-.0768,3.0761-.5742,7.8038-.4271,4.0554-1.4674,7.3004-2.3037,9.4499.0264-3.4322-4.5219-17.0703-7.7917-18.0416-.5658.2014-.0437,1.9355.3326,7.829,1.1245,5.3007-2.0438,20.4087,4.3087,25.516,2.5192,2.3061,4.5428,2.1243,8.8142,3.7118,15.3912,6.4675,19.4795,15.7532,31.0759,28.5913-2.3724.3994-7.6173,4.3547-8.7603,6.9654-13.4415,1.5428-35.3132-7.0161-41.1106-23.9501-6.8605,18.8392,12.8198,30.1199,28.8017,30.3467,7.9532.875,12.6169-.0321,18.4848,3.3351,8.0494,5.515,17.8873,1.3236,17.2491-9.3863v.0002Z"/>
      </g>
      <path class="cls-1" d="M30.6115,39.1389c1.9306,1.5377,3.4993,2.8358,4.5443,3.7116C38.0878,19.5969,35.8635,12.079,15.2257.0001c-2.962,7.8893-5.1152,17.408.2421,26.9203,2.3549,3.6023,4.2703,3.5593,15.1436,12.2185h0Z"/>
    </g>
    <path class="cls-1" d="M170.3343,177.1286c1.4888-.5842,2.8315-1.2532,4.033-1.9525.562-3.0911,1.1401-6.2836,1.6956-9.3688-2.7007,2.4031-6.428,5.2684-11.2473,7.8434-4.6313,2.4745-8.9155,3.9565-12.3201,4.8706,4.0588.7866,10.738,1.3939,17.8389-1.3927h-.0001Z"/>
  </g>
  <path class="cls-1" d="M61.8445,54.7984c.0758,5.1898-8.0724,5.1899-7.9959-.0004-.0758-5.1894,8.0723-5.1895,7.9959.0004Z"/>
</svg>