<?xml version="1.0" encoding="UTF-8"?>
<svg id="Layer_1" xmlns="http://www.w3.org/2000/svg" version="1.1" viewBox="0 0 500 500">
  <!-- Generator: Adobe Illustrator 29.6.1, SVG Export Plug-In . SVG Version: 2.1.1 Build 9)  -->
  <defs>
    <style>
      .st0 {
        fill: #abb9cb;
      }

      .st1 {
        fill: #009764;
      }

      .st2 {
        fill: #00d390;
      }

      .st3 {
        fill: #c7d2df;
      }
    </style>
  </defs>
  <g>
    <path class="st1" d="M0,0h162.5C252.2,0,325,72.8,325,162.5v162.5h-162.5C72.8,325,0,252.2,0,162.5V0h0Z"/>
    <path class="st2" d="M162.5,0H0c108.3,108.3,216.7,216.7,325,325v-162.5C325,72.8,252.2,0,162.5,0Z"/>
  </g>
  <path class="st3" d="M331,13.4c20.9,23.6,36.9,51.6,46.5,82.4,4.8,4,9.5,8.2,14,12.7,37.8,37.8,58.6,88,58.6,141.4s-20.8,103.6-58.6,141.4c-37.8,37.8-88,58.6-141.4,58.6s-103.6-20.8-141.4-58.6c-4.5-4.5-8.7-9.1-12.7-14-30.8-9.6-58.9-25.6-82.4-46.5,33.7,98.3,126.9,169,236.6,169s250-111.9,250-250S429.3,47.1,331,13.4h0Z"/>
  <path class="st0" d="M386.6,141.8c.6,6.8.9,13.7.9,20.7v57.7c2.4,10.3,3.7,21,3.7,31.8,0,37.2-14.5,72.1-40.7,98.4-26.3,26.3-61.2,40.7-98.4,40.7s-21.5-1.2-31.8-3.7h-57.7c-7,0-13.9-.3-20.7-1,30,24.6,68.4,39.4,110.2,39.4,96,0,173.9-77.9,173.9-173.9s-14.8-80.2-39.4-110.2h0Z"/>
</svg>